<?xml version="1.0" encoding="UTF-8" standalone="no"?>
<!-- Created with Inkscape (http://www.inkscape.org/) -->

<svg
   version="1.1"
   id="svg2"
   width="2666.6667"
   height="2666.6667"
   viewBox="0 0 2666.6667 2666.6667"
   sodipodi:docname="logo.eps"
   xmlns:inkscape="http://www.inkscape.org/namespaces/inkscape"
   xmlns:sodipodi="http://sodipodi.sourceforge.net/DTD/sodipodi-0.dtd"
   xmlns="http://www.w3.org/2000/svg"
   xmlns:svg="http://www.w3.org/2000/svg">
  <defs
     id="defs6" />
  <sodipodi:namedview
     id="namedview4"
     pagecolor="#ffffff"
     bordercolor="#000000"
     borderopacity="0.25"
     inkscape:showpageshadow="2"
     inkscape:pageopacity="0.0"
     inkscape:pagecheckerboard="0"
     inkscape:deskcolor="#d1d1d1" />
  <g
     id="g8"
     inkscape:groupmode="layer"
     inkscape:label="ink_ext_XXXXXX"
     transform="matrix(1.3333333,0,0,-1.3333333,0,2666.6667)">
    <g
       id="g10"
       transform="scale(0.1)">
      <path
         d="M 20000,0 H 0 V 20000 H 20000 V 0"
         style="fill:#ffffff;fill-opacity:1;fill-rule:nonzero;stroke:none"
         id="path12" />
      <path
         d="m 10543.4,8910.1 c -405,-641.5 -1023.98,-1122.4 -1742.79,-1353.9 -15.39,-4.9 -30.78,-7.2 -46.17,-7.2 -63.43,0 -122.36,40.6 -142.63,104 -25.52,79.2 17.64,163.7 96.84,189.2 651.99,209.8 1213.53,646 1580.65,1228.1 44.3,70.2 137,91.3 207.2,47 70.2,-44.3 91.2,-137 46.9,-207.2"
         style="fill:#272e38;fill-opacity:1;fill-rule:nonzero;stroke:none"
         id="path14" />
      <path
         d="m 15168.2,12805.2 -27.4,-234.3 c -6,-48.8 -30.8,-91.5 -69.8,-120.5 -39.1,-29.2 -87.5,-40.9 -136.3,-32.6 l -5742.22,988.7 5813.22,-403.5 c 48.7,-3.4 92.7,-25.9 123.8,-63.8 31.2,-37.6 45.1,-84.9 38.7,-134 z m 193.3,324.7 c -83,100.5 -205,163.6 -334.8,172.6 L 7798.03,13804 c -123.87,8.2 -228.22,-78.5 -242.85,-201.6 -14.27,-122.7 66.81,-230.8 188.05,-251.1 L 14883.7,12122 h 0.3 c 27.4,-4.9 55.2,-7.1 82.6,-7.1 101.7,0 200.4,32.6 283.8,94.6 105.8,78.8 172.6,194.4 188.4,326.2 l 27.4,233.4 c 16.5,130.6 -21,259 -104.7,360.8"
         style="fill:#272e38;fill-opacity:1;fill-rule:nonzero;stroke:none"
         id="path16" />
      <path
         d="m 15168.2,12805.2 -27.4,-234.3 c -6,-48.8 -30.8,-91.5 -69.8,-120.5 -39.1,-29.2 -87.5,-40.9 -136.3,-32.6 l -5742.22,988.7 5813.22,-403.5 c 48.7,-3.4 92.7,-25.9 123.8,-63.8 31.2,-37.6 45.1,-84.9 38.7,-134"
         style="fill:#8590a7;fill-opacity:1;fill-rule:nonzero;stroke:none"
         id="path18" />
      <path
         d="m 13752.7,9242.6 -125.4,-199.7 c -25.9,-41.2 -66.8,-69.4 -114.4,-79.2 -48.1,-9.3 -96.9,0.8 -137,29 l -4166.52,2930.4 c -1.13,1.1 -2.63,1.8 -3.75,3 l -595.7,418.9 5080.47,-2853.9 c 42.8,-23.6 72.8,-63 84.5,-110.7 12,-47.3 4.1,-95.7 -22.2,-137.8 z m -2457.1,799.2 c -0.7,16.5 -1.9,32.6 -3.4,49.2 l 84.9,-59.4 c -26.3,6.4 -53.7,9.8 -81.5,10.2 z m 47.7,-359.6 c -335.6,-1509 -1703.01,-2604.3 -3251.36,-2604.3 -1548.35,0 -2915.78,1095.3 -3251.35,2604.3 -3.76,18 3.01,31.5 9.76,39.8 6,7.1 18.77,19.5 40.17,19.5 h 6402.88 c 21.4,0 34.1,-12.4 40.1,-19.5 6.8,-8.3 13.5,-21.8 9.8,-39.8 z M 9917.68,6680.4 c 0,-106.6 -86.71,-193.3 -193.32,-193.3 H 6553.73 c -106.61,0 -193.32,86.7 -193.32,193.3 v 537.9 c 528.51,-286.4 1124.95,-440.6 1731.53,-440.6 642.99,0 1274.34,173.4 1825.74,493.6 z m -3980.3,3889.5 c 143.02,11.6 272.14,98.7 338.2,228.2 56.3,111.1 139.26,205.7 240.61,277 33.78,-274.7 -190.68,-526.6 -271.01,-606.9 -110.36,-110.4 -185.8,-263.1 -215.46,-426.4 h -721.44 c 71.7,329.9 274.39,499.2 629.1,528.1 z m 2307.7,-314.2 c 266.51,266.5 395.63,591.6 352.46,878.7 73.2,236.9 263.13,426.4 499.24,500.8 l 1803.92,-1268.7 c 55.6,-99.1 87.9,-210.2 94.6,-324.7 H 8125.34 c 23.66,83.3 65.69,159.9 119.74,213.9 z m -49.91,1987.9 c 0,9.8 -1.14,18.8 -3.01,27.8 l 616.71,-433.9 c -149.02,-82.2 -275.13,-199 -368.97,-340.4 -239.86,328.4 -244.73,742.8 -244.73,746.5 z m 5870.93,-2790 c -31.5,126.5 -114.8,235.7 -228.6,299.5 l -6317.61,3548.3 c -108.48,60.4 -239.85,27 -305.91,-78.1 -65.32,-104.7 -38.29,-237.2 62.68,-307.8 l 745.09,-524 c -72.07,-11.2 -126.87,-72.8 -126.87,-147.9 0,-21 3.37,-525.1 312.29,-936.9 44.67,-59.3 73.57,-120.8 88.59,-187.3 0.37,-1.5 0.37,-3.4 0.75,-5.2 0.38,-0.4 0.38,-0.8 0.38,-1.2 6.75,-31.5 9.75,-63 9.75,-94.2 0,-255.2 -204.56,-481.6 -273.63,-550.6 -110.36,-110.4 -186.19,-263.1 -215.46,-426.4 h -585.93 c 23.65,83.3 65.68,159.9 119.74,213.9 310.79,311.2 527.37,797.7 201.94,1231.2 -246.99,329.9 -251.86,753 -252.24,757.1 0,83 -67.19,149.8 -150.14,149.8 -82.58,0 -150.14,-67.2 -150.14,-150.2 0,-21 3.74,-525.1 312.29,-936.9 264.25,-352 -66.43,-730.8 -174.17,-838.5 -109.97,-110.4 -185.8,-263.1 -215.08,-426.4 H 6337.9 c 23.64,83.3 65.68,159.9 119.73,213.9 269.88,269.9 484.96,702.3 280.77,1104.3 -20.27,41.7 -45.8,83.4 -78.83,126.9 -246.99,329.9 -252.24,753 -252.24,756.7 0,83 -67.19,150.2 -150.14,150.2 -82.95,0 -150.14,-67.2 -150.14,-150.2 0,-20.2 3.38,-490.2 280.76,-893 -161.78,-101.7 -293.9,-245.4 -379.85,-417 -18.77,-36.4 -55.19,-61.2 -94.97,-64.5 -512.75,-41.7 -824.29,-327.3 -909.87,-827.3 h -112.6 c -107.36,0 -207.2,-48.1 -274.39,-131.8 -66.44,-82.9 -91.59,-189.5 -68.7,-292.7 176.43,-793.2 623.1,-1513.9 1257.83,-2028.9 82.21,-66.8 167.41,-129.5 254.87,-188.8 v -719.2 c 0,-272.1 221.46,-493.5 493.6,-493.5 h 3170.63 c 272.14,0 493.64,221.4 493.64,493.5 v 785.7 c 54.4,39.4 108.4,79.9 160.6,122.3 634.7,515 1081.4,1235.7 1257.8,2028.9 20.7,93 1.9,188.7 -50.6,267.2 l 1617,-1137.3 h 0.4 c 81.8,-57.5 176.4,-87.5 273.6,-87.5 31.5,0 63.5,3.4 95,9.8 129.5,25.9 239.1,101.7 310,213.9 l 124.6,199.3 c 70.6,111.1 92,242.9 59.7,370.9"
         style="fill:#272e38;fill-opacity:1;fill-rule:nonzero;stroke:none"
         id="path20" />
      <path
         d="m 13752.7,9242.6 -125.4,-199.7 c -25.9,-41.2 -66.8,-69.4 -114.4,-79.2 -48.1,-9.3 -96.9,0.8 -137,29 l -4166.52,2930.4 c -1.13,1.1 -2.63,1.8 -3.75,3 l -595.7,418.9 5080.47,-2853.9 c 42.8,-23.6 72.8,-63 84.5,-110.7 12,-47.3 4.1,-95.7 -22.2,-137.8"
         style="fill:#8590a7;fill-opacity:1;fill-rule:nonzero;stroke:none"
         id="path22" />
      <path
         d="m 9917.68,7271.3 v -590.9 c 0,-106.6 -86.71,-193.3 -193.32,-193.3 H 6553.73 c -106.61,0 -193.32,86.7 -193.32,193.3 v 537.9 c 528.51,-286.4 1124.95,-440.6 1731.53,-440.6 642.99,0 1274.34,173.4 1825.74,493.6"
         style="fill:#ef534b;fill-opacity:1;fill-rule:nonzero;stroke:none"
         id="path24" />
      <path
         d="m 10543.4,8910.1 c -405,-641.5 -1023.98,-1122.4 -1742.79,-1353.9 -15.39,-4.9 -30.78,-7.2 -46.17,-7.2 -63.43,0 -122.36,40.6 -142.63,104 -25.52,79.2 17.64,163.7 96.84,189.2 651.99,209.8 1213.53,646 1580.65,1228.1 44.3,70.2 137,91.3 207.2,47 70.2,-44.3 91.2,-137 46.9,-207.2 z m 790.1,811.9 c -6,7.1 -18.7,19.5 -40.1,19.5 H 4890.52 c -21.4,0 -34.17,-12.4 -40.17,-19.5 -6.75,-8.3 -13.52,-21.8 -9.76,-39.8 335.57,-1509 1703,-2604.3 3251.35,-2604.3 1548.35,0 2915.76,1095.3 3251.36,2604.3 3.7,18 -3,31.5 -9.8,39.8"
         style="fill:#ef534b;fill-opacity:1;fill-rule:nonzero;stroke:none"
         id="path26" />
    </g>
  </g>
</svg>
